<svg id="Layer_1" data-name="Layer 1" xmlns="http://www.w3.org/2000/svg" viewBox="0 0 918.82 611.18"><defs><style>.cls-1{fill:#1f89c6;}.cls-2{fill:none;}.cls-3{fill:#fcfcfc;}</style></defs><path class="cls-1" d="M10.11,411.2v.89l44.55,31.6L435,230.64l380.4,213,44.7-31.54v-.89a38,38,0,0,1-4-1.64q-75.81-42.33-151.56-84.71Q581.66,256.09,458.94,187.27c-7.16-4-14-8.28-21-12.43h-5.66c-9.85,5.72-19.55,11.53-29.55,17.13Q292.64,253.67,182.47,315.3,99.1,362,15.76,408.72C14.05,409.66,12,410.37,10.11,411.2Z" transform="translate(-10.11 -174.84)"/><path class="cls-1" d="M185.81,490.34c-.25-10.13-.47-20.28-.31-30.42a6.6,6.6,0,0,1,3.37-4.94q84-48.32,168.19-96.44Q393,338,428.83,317.36c3.28-1.88,6.6-3.75,10.31-5.87L700,456.67l33.69-23.19L435.07,266.27c-10.42,5.8-20.66,11.45-30.84,17.14q-92.69,51.88-185.33,103.8-39.43,22.11-78.63,44.36c-2.06,1.18-3.69,3.4-3.69,5.14q-.27,83.91-.15,167.83c0,20.43.24,71.07-.06,91.49H190.2C188.74,637.54,187.26,548.84,185.81,490.34Z" transform="translate(-10.11 -174.84)"/><path class="cls-1" d="M627,247.74c0,1,1.42,2.2,2.72,2.95q50.58,29,101.3,57.9a16.9,16.9,0,0,0,2.51.77V209.22H626.9C626.9,222.16,626.84,235,627,247.74Z" transform="translate(-10.11 -174.84)"/><line class="cls-2" x1="105.3" y1="611.18" x2="169.81" y2="611.18"/><path class="cls-3" d="M256.58,592.59a25,25,0,0,1-10.87-8.05,20.14,20.14,0,0,1-4-12.54c0-.62.09-1.74.27-3.35h15.15a12.21,12.21,0,0,0,3.63,10.26q4.15,4.1,11.93,4.09,8.32,0,13-3.42t4.7-9.86a9.93,9.93,0,0,0-2.35-6.64,19.87,19.87,0,0,0-5.9-4.62q-3.56-1.87-9.86-4.43a128.55,128.55,0,0,1-13.28-6.3,26.43,26.43,0,0,1-8.51-7.78q-3.57-5-3.56-12.48a25.05,25.05,0,0,1,4.29-14.55,27.57,27.57,0,0,1,11.87-9.59,41.91,41.91,0,0,1,17.1-3.35,39.32,39.32,0,0,1,16.43,3.15A23.29,23.29,0,0,1,307.07,512a22.45,22.45,0,0,1,3.16,13.35h-16.1a10.61,10.61,0,0,0-3.35-9.19q-3.9-3.69-11.27-3.69-7.77,0-12.4,3.56a11.44,11.44,0,0,0-4.63,9.59,9.66,9.66,0,0,0,2.35,6.5,20.34,20.34,0,0,0,6,4.69q3.63,2,9.8,4.63a146.45,146.45,0,0,1,13.34,6.71,28.25,28.25,0,0,1,8.65,8,20.63,20.63,0,0,1,3.62,12.4,23.57,23.57,0,0,1-4.29,13.89,28.22,28.22,0,0,1-12.07,9.52A43.94,43.94,0,0,1,272,595.34,41.1,41.1,0,0,1,256.58,592.59Z" transform="translate(-10.11 -174.84)"/><path class="cls-3" d="M377.29,513l-5,28.3h32.19l-2,11.8H370.31l-5.23,29.37h36.21l-2.14,11.94h-51.5l16.49-93.35h51.51L413.5,513Z" transform="translate(-10.11 -174.84)"/><path class="cls-3" d="M460.91,523.05a58.42,58.42,0,0,1,20.25-17,54.49,54.49,0,0,1,25-6.1q14.88,0,25.28,7.31T544.67,528H526.29A19.92,19.92,0,0,0,518,517.48c-3.85-2.37-8.58-3.55-14.22-3.55a36.74,36.74,0,0,0-17.23,4.15,37.69,37.69,0,0,0-13.41,11.81,42.54,42.54,0,0,0-7.18,17.7,51.08,51.08,0,0,0-.67,7.51q0,12.07,7.24,19.18t19.32,7.11a34.27,34.27,0,0,0,15.55-3.55,31.61,31.61,0,0,0,11.94-10.53h18.37A53.51,53.51,0,0,1,517.17,588a55.66,55.66,0,0,1-27.76,7.25,43.43,43.43,0,0,1-20.65-4.83,35.17,35.17,0,0,1-14.22-13.55,39.1,39.1,0,0,1-5.1-20.12,55.25,55.25,0,0,1,.81-9.12A56.08,56.08,0,0,1,460.91,523.05Z" transform="translate(-10.11 -174.84)"/><path class="cls-3" d="M601.94,590.38a34.94,34.94,0,0,1-14-14A41.45,41.45,0,0,1,583,556a57.88,57.88,0,0,1,7.17-28.77,51.9,51.9,0,0,1,19.85-20A56.15,56.15,0,0,1,638.42,500a42.55,42.55,0,0,1,20.92,5,35.08,35.08,0,0,1,13.95,13.88,41.08,41.08,0,0,1,5,20.32A58.28,58.28,0,0,1,671.08,568a51.81,51.81,0,0,1-19.85,20.12,56.5,56.5,0,0,1-28.5,7.24A42.28,42.28,0,0,1,601.94,590.38Zm42.45-14.49a38.41,38.41,0,0,0,13.28-15.09,45.14,45.14,0,0,0,4.76-20.58q0-12.21-6.91-19.25t-19.25-7a34.86,34.86,0,0,0-19.51,5.56,37.56,37.56,0,0,0-13.21,15,45.51,45.51,0,0,0-4.7,20.65q0,12.21,6.91,19.32t19.11,7.1A34.55,34.55,0,0,0,644.39,575.89Z" transform="translate(-10.11 -174.84)"/><path class="cls-3" d="M790.65,594.4H775.36l-33.67-69.61L729.35,594.4H714.06l16.5-93.35h15.29l33.8,69.48,12.2-69.48h15.29Z" transform="translate(-10.11 -174.84)"/><path class="cls-3" d="M909.34,505.61a32.56,32.56,0,0,1,14.56,12.74q5,8.32,5,19.72a53.08,53.08,0,0,1-.94,10.06,57,57,0,0,1-10.46,24.68,51.78,51.78,0,0,1-20.12,16,64.41,64.41,0,0,1-27.09,5.57H839.87l16.5-93.21h30.44Q899.82,501.19,909.34,505.61Zm-10.26,67.87q10.39-9.26,13.22-25.35a52.52,52.52,0,0,0,.8-8.72q0-12.33-7.24-19.11t-21.19-6.78H869.51l-12.2,69.21h15.15Q888.69,582.73,899.08,573.48Z" transform="translate(-10.11 -174.84)"/><path class="cls-3" d="M362.46,632.83,340.12,759.08H319.41l9.81-55.77H269.81L260,759.08H239.3l22.34-126.25h20.71l-9.63,54.5h59.4l9.63-54.5Z" transform="translate(-10.11 -174.84)"/><path class="cls-3" d="M438.75,753.63a47.3,47.3,0,0,1-18.89-18.89,56.16,56.16,0,0,1-6.72-27.61q0-21.61,9.72-39A70.26,70.26,0,0,1,449.75,641a76,76,0,0,1,38.42-9.81q16.15,0,28.33,6.73a47.36,47.36,0,0,1,18.9,18.8,55.65,55.65,0,0,1,6.72,27.52q0,21.62-9.72,39a70,70,0,0,1-26.89,27.25q-17.16,9.81-38.6,9.81Q450.92,760.35,438.75,753.63ZM496.25,734a52.08,52.08,0,0,0,18-20.43,61.11,61.11,0,0,0,6.45-27.89q0-16.53-9.35-26.07t-26.07-9.53a47.26,47.26,0,0,0-26.43,7.53,50.94,50.94,0,0,0-17.9,20.26,61.65,61.65,0,0,0-6.35,28q0,16.53,9.35,26.15t25.89,9.63A46.78,46.78,0,0,0,496.25,734Z" transform="translate(-10.11 -174.84)"/><path class="cls-3" d="M747.94,632.83,725.59,759.08H704.88l15.26-86.47-53.77,86.47H652l-23.43-86.47-15.26,86.47H592.62L615,632.83h22.35l26.88,99,61.59-99Z" transform="translate(-10.11 -174.84)"/><path class="cls-3" d="M834.41,648.81l-6.73,38.33h43.6l-2.72,16H825l-7.08,39.78h49L864,759.08H794.26L816.6,632.65h69.76l-2.91,16.16Z" transform="translate(-10.11 -174.84)"/></svg>